<?xml version="1.0" encoding="utf-8"?>
<!-- Generator: Adobe Illustrator 16.0.0, SVG Export Plug-In . SVG Version: 6.00 Build 0)  -->
<!DOCTYPE svg PUBLIC "-//W3C//DTD SVG 1.1//EN" "http://www.w3.org/Graphics/SVG/1.1/DTD/svg11.dtd">
<svg version="1.1" id="Layer_1" xmlns="http://www.w3.org/2000/svg" xmlns:xlink="http://www.w3.org/1999/xlink" x="0px" y="0px"
	 width="39px" height="39px" viewBox="0 0 39 39" enable-background="new 0 0 39 39" xml:space="preserve">
<g transform="translate(0.000000,39.000000) scale(0.100000,-0.100000)">
	<path fill="#FCFCFC" d="M130,377.998C18.999,340-31.001,195,32.002,92.002C67.002,35,122.998,5,196.001,5
		C249.004,5,265,9.004,302.002,35c82.998,57.998,110,160,65,246.001C322.002,365,219.004,407.002,130,377.998z M287.002,338.999
		C410,262.998,382.002,67.998,240.996,30C72.002-15-47.998,191.001,75,315C132.998,372.998,217.002,382.002,287.002,338.999z"/>
	<path fill="#FCFCFC" d="M102.002,287.998c-42.002-41.997,35-173.994,112.002-193.994c43.994-11.006,80.996-1.006,83.994,22.998
		C302.002,144.004,255.996,167.998,235,150c-32.002-25.996-105,45-83.999,82.002c11.001,20-5,67.998-23.999,67.998
		C120,300,108.999,295,102.002,287.998z"/>
</g>
</svg>
