<svg viewBox="0 0 222 25" fill="none" xmlns="http://www.w3.org/2000/svg">

<g clip-path="url(#clip0_1003_370)">

<path d="M1.812 15.9568C1.83412 15.8872 1.87836 15.8249 1.93735 15.7772C1.99633 15.7296 2.06638 15.704 2.1438 15.7003C2.21754 15.6966 2.29127 15.7113 2.35763 15.748C2.42399 15.7846 2.4756 15.8396 2.50878 15.9055L3.54475 17.2506C3.69959 17.4925 3.90973 17.694 4.16043 17.837C4.41112 17.9799 4.69132 18.0642 4.97887 18.0825L10.0923 18.6726C10.3799 18.6983 10.6601 18.7862 10.9144 18.9292C11.1651 19.0721 11.3827 19.27 11.5486 19.5046L12.7468 21.0365C12.9716 21.3298 12.8979 21.59 12.5514 21.6963L5.83785 23.4628C5.56503 23.5544 5.2738 23.5837 4.98625 23.5434C4.69866 23.5031 4.42589 23.4005 4.18623 23.2392L1.24793 21.5753C0.960372 21.447 0.702307 21.2564 0.499535 21.0146C0.296769 20.7764 0.149301 20.4904 0.068194 20.19C-0.0129135 19.8857 -0.0202869 19.5669 0.0387003 19.259C0.0976875 18.9512 0.226722 18.658 0.414743 18.4051L1.81938 15.9568H1.812ZM7.81027 2.96068L6.47937 3.98689C6.24339 4.14448 6.04433 4.35339 5.90423 4.59894C5.76413 4.8445 5.67933 5.11938 5.66091 5.4016L4.99364 10.485C4.96783 10.7745 4.88303 11.0531 4.74293 11.3059C4.60283 11.5588 4.41112 11.7824 4.18255 11.9583L2.7005 13.1128C2.40556 13.3584 2.14012 13.2631 2.0332 12.9185L0.230408 6.28484C0.141928 6.01729 0.116121 5.73142 0.152988 5.45289C0.193541 5.17436 0.293082 4.90681 0.455298 4.67225L2.13274 1.73656C2.8922 0.464801 4.00558 0.149614 5.28857 0.904608L7.75497 2.29731C8.10151 2.49888 8.10151 2.71879 7.80657 2.96435L7.81027 2.96068ZM10.8665 2.49523L17.4805 0.706694C17.7533 0.607738 18.0408 0.574749 18.3284 0.6114C18.616 0.644385 18.8888 0.743344 19.1321 0.900939L22.0704 2.56486C23.3791 3.29787 23.7478 4.44501 22.981 5.72409L21.5469 8.17236C21.3773 8.48751 21.0823 8.53884 20.8574 8.24564L19.7736 6.87493C19.604 6.64036 19.3901 6.44613 19.1358 6.3032C18.8814 6.16027 18.6049 6.07227 18.3173 6.04298L13.2813 5.45289C12.9937 5.42724 12.7136 5.33929 12.4592 5.19636C12.2085 5.05342 11.9909 4.85549 11.8251 4.62093L10.6453 3.15492C10.59 3.10361 10.5532 3.04131 10.5347 2.97167C10.5163 2.90204 10.52 2.82507 10.5421 2.75544C10.5642 2.6858 10.6084 2.6235 10.6637 2.57952C10.719 2.53188 10.7891 2.50256 10.8628 2.49523H10.8665ZM16.909 20.1423C17.1486 19.9737 17.3477 19.7538 17.4878 19.5009C17.6279 19.2444 17.709 18.9622 17.7238 18.6726L18.3173 13.6332C18.3394 13.351 18.4242 13.0798 18.5643 12.8342C18.7044 12.5887 18.8962 12.3761 19.1284 12.2112L20.6621 11.0457C20.957 10.8295 21.2225 10.9248 21.2999 11.2693L23.0805 17.8516C23.1764 18.1155 23.2132 18.3977 23.1801 18.68C23.1506 18.9585 23.0547 19.2297 22.9073 19.4679L21.2298 22.4036C20.4851 23.6754 19.3275 23.9979 18.0445 23.2356L15.6002 21.8648C15.2574 21.6706 15.2574 21.425 15.556 21.2052L16.909 20.146V20.1423Z" fill="#2437ED"/>

<path fill-rule="evenodd" clip-rule="evenodd" d="M95.6895 4.49998H94.012V2.20201L99.0481 1.95645V19.259H95.6895V4.49998ZM35.8217 19.4569C30.6456 19.4569 28.6954 17.3312 28.6696 13.6552H32.1719C32.2456 15.3192 33.1341 16.5432 35.7259 16.5432C37.9195 16.5432 38.6863 15.8616 38.7859 14.8793C38.9367 13.3924 37.0918 13.0388 34.9656 12.6312C32.2599 12.1126 29.0987 11.5066 29.0161 8.36658C28.9387 5.62515 30.5424 3.39682 35.4494 3.39682C40.3564 3.39682 41.9748 5.80106 42.0117 8.93102H38.5315C38.3361 7.34404 37.7941 6.33982 35.324 6.33982C33.0309 6.33982 32.3931 7.10218 32.489 8.198C32.577 9.17603 34.084 9.45603 35.886 9.79085C38.6895 10.3117 42.2071 10.9653 42.2071 14.5861C42.2071 16.8841 40.7287 19.4533 35.818 19.4533L35.8217 19.4569ZM44.6809 13.5086V6.73199H48.0395V13.7761C48.0395 15.5647 48.3564 16.6422 50.6015 16.6422C52.847 16.6422 53.1195 15.5647 53.1195 13.7761V6.73199H56.4781V13.5086C56.4781 17.005 55.689 19.4532 50.609 19.4532C45.5289 19.4532 44.6844 17.005 44.6844 13.5086H44.6809ZM62.2953 17.9139C62.8079 18.6506 63.9214 19.4569 66.0926 19.4569C70.0891 19.4569 71.4422 16.3636 71.4422 13.0615C71.4422 9.75928 69.9673 6.54871 65.9933 6.54871C63.2282 6.54871 61.9195 7.55293 61.1304 8.82471L60.3932 6.732H58.9368V24.1592H62.2953V17.9139ZM68.1131 13.0431C68.1131 15.1982 67.3758 16.6422 65.031 16.6422H65.0275C62.7565 16.6422 62.2918 15.1249 62.2808 13.0431C62.2808 10.8405 62.782 9.27551 65.0789 9.27551C67.3758 9.27551 68.1131 10.8881 68.1131 13.0431ZM79.0372 19.4569C74.2262 19.4569 72.921 16.2537 72.921 12.9955C72.921 9.73729 74.1304 6.53409 79.0372 6.53409C83.9441 6.53409 84.8844 10.0378 84.3424 14.3076H76.324C76.4453 16.0228 77.5109 16.7558 78.9858 16.7558H83.697V19.1528C83.697 19.1528 80.7148 19.4569 79.0372 19.4569ZM81.2089 11.7457C81.2089 10.2284 80.5635 9.15458 78.9709 9.15458C77.0981 9.15458 76.4084 10.3054 76.3091 11.7457H81.2089ZM89.8946 19.2627V12.8012V12.7976C89.8946 10.4886 90.3847 9.41844 93.2896 9.44044V6.60373H92.7296C90.5579 6.60373 89.7209 7.1608 88.7072 8.71475L87.9186 6.732H86.536V19.2627H89.8946ZM101.139 12.9735C101.139 16.2977 102.492 19.4569 107.406 19.4569C112.291 19.4569 113.718 16.2757 113.718 12.9735C113.718 9.67134 112.291 6.53405 107.406 6.53405C102.521 6.53405 101.139 9.64934 101.139 12.9735ZM110.389 12.9735C110.389 15.0992 109.699 16.6202 107.406 16.6202V16.5982C105.113 16.5982 104.468 15.0333 104.468 12.9735C104.468 10.9138 105.017 9.37445 107.406 9.37445C109.795 9.37445 110.389 10.9907 110.389 12.9735ZM109.895 2.16171L104.49 3.10729V4.96543H109.895V2.16171ZM115.2 13.1164C115.2 9.78493 116.678 6.53409 120.671 6.53409C123.506 6.53409 124.767 7.53831 125.556 8.81004L126.345 6.73564H127.727L127.757 19.5816C127.757 22.0298 126.839 24.5 121.788 24.5C120.284 24.5 117.272 24.2544 117.272 24.2544V21.8062H121.81C124.048 21.8062 124.402 20.9303 124.402 19.8528V18.0642C123.882 18.7752 122.772 19.5302 120.579 19.5302C116.579 19.5302 115.203 16.4992 115.203 13.1201L115.2 13.1164ZM124.42 13.1164C124.42 10.8955 123.978 9.32315 121.585 9.32315C119.192 9.32315 118.529 10.9394 118.529 13.1164C118.529 15.2935 119.266 16.7924 121.585 16.7924C123.904 16.7924 124.42 15.1982 124.42 13.1164ZM130.341 3.57275C130.341 4.74556 131.093 5.03876 132.214 5.03876C133.28 5.03876 134.039 4.77121 134.039 3.57275C134.039 2.37429 133.272 2.08109 132.214 2.08109C131.156 2.08109 130.341 2.39995 130.341 3.57275ZM133.892 6.73201H130.537V19.2627H133.892V6.73201ZM142.473 19.4569C137.342 19.4569 136.011 16.3747 136.011 12.9955C136.011 9.61635 137.393 6.53409 142.4 6.53409C143.783 6.53409 146.544 6.77964 146.544 6.77964V9.32684H142.4C140.129 9.32684 139.34 10.8185 139.34 12.9955C139.34 15.1725 140.129 16.5945 142.473 16.5945H146.518V19.215C146.518 19.215 143.831 19.4606 142.473 19.4606V19.4569ZM147.771 15.572C147.771 18.2365 150.01 19.4569 152.808 19.4569H152.804C155.374 19.4569 156.852 18.4087 157.589 17.2543L158.349 19.2627H159.772V12.1636C159.772 8.83938 159.057 6.53409 153.803 6.53409C152.321 6.53409 149.39 6.77964 149.39 6.77964V9.16191H153.866C155.738 9.16191 156.406 10.1588 156.406 11.5588H153.047C149.298 11.5588 147.771 13.1971 147.771 15.572ZM156.41 14.062C156.31 15.594 155.599 16.8364 153.427 16.8364V16.8401C151.772 16.8401 151.105 16.228 151.105 15.3631C151.105 14.6997 151.624 13.7688 153.376 13.7688H156.41V14.062Z" fill="#323B49"/>

<path fill-rule="evenodd" clip-rule="evenodd" d="M206.571 17.2506L206.195 19.6475H205.141V1.98578H206.999V9.05559C207.526 7.75817 208.883 6.7063 211.773 6.7063C216.219 6.7063 217.351 9.60537 217.351 13.1751C217.351 16.7448 216.171 19.7941 211.722 19.7941C208.529 19.7941 207.073 18.5956 206.571 17.2469V17.2506ZM211.272 18.2511C214.715 18.2511 215.442 16.228 215.442 13.1787C215.442 10.1295 214.711 8.30795 211.195 8.30795C207.677 8.30795 206.948 10.3054 206.948 13.1787C206.948 16.25 207.699 18.2511 211.268 18.2511H211.272ZM165.763 3.6607H167.724V19.6475H165.763V3.6607ZM170.787 6.85657H170.791V19.6438H172.675V12.1232C172.675 9.74826 173.353 8.32626 175.791 8.32626C178.227 8.32626 178.806 9.79959 178.806 12.1232V19.6438H180.716V12.1232C180.716 9.74826 181.394 8.32626 183.831 8.32626C186.268 8.32626 186.795 9.79959 186.795 12.1232V19.6438H188.731V12.2258C188.731 9.08124 187.927 6.7063 184.384 6.7063C181.822 6.7063 180.565 7.85715 180.189 9.20586C179.709 7.6299 178.555 6.7063 176.344 6.7063C173.954 6.7063 172.675 7.72884 172.222 8.85404L171.643 6.85657H170.791V6.85293L170.787 6.85657ZM196.845 6.7063C191.972 6.7063 190.688 9.90586 190.688 13.252C190.688 16.6239 191.92 19.7978 196.82 19.7978C201.719 19.7978 203.002 16.6019 203.002 13.252C203.002 9.90221 201.719 6.7063 196.845 6.7063ZM201.092 13.252C201.092 16.0008 200.237 18.2475 196.82 18.2475C193.428 18.2475 192.598 15.9531 192.598 13.252C192.598 10.5509 193.428 8.30426 196.845 8.30426C200.263 8.30426 201.092 10.5033 201.092 13.252ZM222 3.61305C222 2.66381 221.447 2.4879 220.617 2.4879C219.736 2.4879 219.183 2.66381 219.183 3.61305C219.183 4.51465 219.736 4.76388 220.617 4.76388C221.447 4.76388 222 4.51098 222 3.61305ZM221.52 6.86026H219.663V19.6512H221.52V6.86026Z" fill="url(#paint0_linear_1003_370)"/>

</g>

<defs>

<linearGradient id="paint0_linear_1003_370" x1="162.758" y1="8.26764" x2="224.326" y2="8.26764" gradientUnits="userSpaceOnUse">

<stop stop-color="#1034F1"/>

<stop offset="1" stop-color="#A500B0"/>

</linearGradient>

<clipPath id="clip0_1003_370">

<rect width="222" height="24" fill="white" transform="translate(0 0.5)"/>

</clipPath>

</defs>

</svg>
