<svg width="28" height="28" viewBox="0 0 28 28" fill="none" xmlns="http://www.w3.org/2000/svg">
  <path
    d="M27.3329 20.5605V24.5605C27.3344 24.9318 27.2584 25.2993 27.1096 25.6396C26.9608 25.9798 26.7427 26.2852 26.469 26.5363C26.1954 26.7873 25.8724 26.9784 25.5206 27.0974C25.1688 27.2164 24.7961 27.2605 24.4263 27.2271C20.3234 26.7813 16.3823 25.3793 12.9196 23.1338C9.69802 21.0867 6.9667 18.3554 4.91959 15.1338C2.66622 11.6554 1.26391 7.69511 0.826252 3.57379C0.792933 3.20508 0.836752 2.83347 0.954919 2.48262C1.07309 2.13177 1.26301 1.80937 1.51261 1.53595C1.7622 1.26253 2.06599 1.04407 2.40464 0.894484C2.74329 0.744901 3.10937 0.66747 3.47959 0.667121H7.47959C8.12666 0.660753 8.75397 0.889893 9.2446 1.31183C9.73523 1.73377 10.0557 2.31972 10.1463 2.96045C10.3151 4.24054 10.6282 5.49742 11.0796 6.70712C11.259 7.18435 11.2978 7.70301 11.1915 8.20163C11.0851 8.70025 10.8381 9.15794 10.4796 9.52046L8.78625 11.2138C10.6843 14.5518 13.4482 17.3157 16.7863 19.2138L18.4796 17.5205C18.8421 17.162 19.2998 16.9149 19.7984 16.8086C20.297 16.7022 20.8157 16.7411 21.2929 16.9205C22.5026 17.3719 23.7595 17.685 25.0396 17.8538C25.6873 17.9452 26.2788 18.2714 26.7016 18.7704C27.1245 19.2695 27.3491 19.9066 27.3329 20.5605Z"
    stroke="#333A44" stroke-linecap="round" stroke-linejoin="round" />
</svg>
